<?xml version="1.0" encoding="utf-8"?>
<!-- Generator: Adobe Illustrator 17.1.0, SVG Export Plug-In . SVG Version: 6.00 Build 0)  -->
<!DOCTYPE svg PUBLIC "-//W3C//DTD SVG 1.1//EN" "http://www.w3.org/Graphics/SVG/1.1/DTD/svg11.dtd">
<svg version="1.1" id="Layer_1" xmlns="http://www.w3.org/2000/svg" xmlns:xlink="http://www.w3.org/1999/xlink" x="0px" y="0px"
     width="841.9px" height="595.3px" viewBox="0 0 841.9 595.3" enable-background="new 0 0 841.9 595.3" xml:space="preserve">
<g>
    <path fill="none" d="M243.8,325.6c-1.7,2.3-3.6,4.5-5.2,7c-1.6,2.4-2.3,5.2-2,8.2c0.3,2.5,1.8,4.4,3.6,4.6c1.8,0.1,3.9-1.6,4-4.2
        c0.2-5.1,0.1-10.2,0.1-15.3C244.1,325.8,243.9,325.7,243.8,325.6z"/>
    <polygon fill="#E83B50" points="808.4,163.7 437.8,252.3 437.7,252.3 401.8,252.3 238.1,252.3 238.2,251.7 237.5,252.3
        237.2,252.3 83.7,163.7 145.4,323.6 145.6,323.8 228.3,413.5 191.9,452.8 507.6,452.8 467,413.5    "/>
    <polygon fill="#E83B50" points="434.9,224.1 338.5,131.1 242.1,224.1 338.5,224.1     "/>
    <g>
        <polygon fill="#E83B50" points="808.4,163.8 437.8,252.4 437.7,252.4 401.8,252.4 238.1,252.4 238.2,251.8 237.5,252.4
            237.2,252.4 83.7,163.8 145.4,323.7 145.6,323.9 228.3,413.6 191.9,452.9 507.6,452.9 467,413.6        "/>
        <polygon fill="#E83B50" points="434.9,224.2 338.5,131.1 242.1,224.2 338.5,224.2         "/>
    </g>
    <polygon fill="#E83B50" points="808.4,163.7 467,413.5 808.4,163.7   "/>
    <polygon fill="#E83B50" points="507.6,452.8 467,413.5 507.6,452.8   "/>
    <polygon fill="#E83B50" points="338.5,224.1 242.1,224.1 242.1,224.1 338.5,224.1 434.9,224.1 338.5,131.1 338.5,131.1
        434.9,224.1     "/>
    <polygon fill="#E83B50" points="238.2,251.7 238.2,251.7 238.2,251.7 237.7,252.1 237.5,252.3 145.6,323.8 228.3,413.5
        238.1,252.3     "/>
    <polygon fill="#EC5F72" points="237.2,252.3 216.8,240.5 83.7,163.7 83.7,163.7 95.6,194.6 145.4,323.6 145.6,323.8 237.5,252.3
        "/>
    <polygon fill="#EC5F72" points="808.4,163.7 437.8,252.3 437.7,252.3 467,413.5 808.4,163.7   "/>
    <polygon fill="#EC5F72" points="228.3,413.5 191.9,452.8 191.9,452.8 507.6,452.8 467,413.5 344.3,413.5   "/>
    <polygon fill="#EC5F72" points="434.9,224.1 338.5,131.1 338.5,224.1     "/>
    <polygon fill="#E88E8E" points="338.5,224.1 338.5,131.1 338.5,131.1 242.1,224.1 242.1,224.1     "/>
    <polygon fill="#E88E8E" points="401.8,252.3 238.1,252.3 228.3,413.5 344.3,413.5     "/>
    <polygon fill="#E83B50" points="401.8,252.3 344.3,413.5 467,413.5 437.7,252.3   "/>
</g>
</svg>
